<mxfile host="app.diagrams.net" agent="Mozilla/5.0 (Macintosh; Intel Mac OS X 10_15_7) AppleWebKit/537.36 (KHTML, like Gecko) Chrome/135.0.0.0 Safari/537.36" version="26.2.14">
  <diagram name="Page-1" id="cmxIMJ6G90rT3dKoX4ym">
    <mxGraphModel dx="1084" dy="700" grid="1" gridSize="10" guides="1" tooltips="1" connect="1" arrows="1" fold="1" page="1" pageScale="1" pageWidth="850" pageHeight="1100" background="none" math="0" shadow="0" adaptiveColors="none">
      <root>
        <mxCell id="0" />
        <mxCell id="1" parent="0" />
        <mxCell id="5WvWs1xMRRowV0mH6_QV-138" value="" style="group;fillColor=none;" vertex="1" connectable="0" parent="1">
          <mxGeometry x="9.999999999999996" y="100" width="790" height="1840" as="geometry" />
        </mxCell>
        <mxCell id="5WvWs1xMRRowV0mH6_QV-11" value="" style="rounded=0;whiteSpace=wrap;html=1;" vertex="1" parent="5WvWs1xMRRowV0mH6_QV-138">
          <mxGeometry x="235" y="280" width="345" height="180" as="geometry" />
        </mxCell>
        <mxCell id="5WvWs1xMRRowV0mH6_QV-3" style="edgeStyle=orthogonalEdgeStyle;rounded=0;orthogonalLoop=1;jettySize=auto;html=1;entryX=0.5;entryY=0;entryDx=0;entryDy=0;entryPerimeter=0;" edge="1" parent="5WvWs1xMRRowV0mH6_QV-138" source="5WvWs1xMRRowV0mH6_QV-2" target="5WvWs1xMRRowV0mH6_QV-4">
          <mxGeometry relative="1" as="geometry">
            <mxPoint x="390" y="150" as="targetPoint" />
          </mxGeometry>
        </mxCell>
        <mxCell id="5WvWs1xMRRowV0mH6_QV-2" value="&amp;nbsp; RTS Core Router&amp;nbsp; &amp;nbsp; &amp;nbsp; &amp;nbsp; &amp;nbsp; &amp;nbsp; &amp;nbsp; &amp;nbsp; &amp;nbsp; &amp;nbsp; &amp;nbsp; &amp;nbsp; &amp;nbsp; &amp;nbsp; &amp;nbsp; &amp;nbsp; &amp;nbsp; &amp;nbsp; &amp;nbsp; &amp;nbsp; &amp;nbsp; &amp;nbsp; &amp;nbsp; &amp;nbsp; &amp;nbsp; &amp;nbsp; &amp;nbsp; &amp;nbsp; &amp;nbsp; &amp;nbsp; &amp;nbsp; &amp;nbsp; &amp;nbsp;&amp;nbsp;" style="points=[];aspect=fixed;html=1;align=center;shadow=0;dashed=0;fillColor=#FF6A00;strokeColor=none;shape=mxgraph.alibaba_cloud.router;" vertex="1" parent="5WvWs1xMRRowV0mH6_QV-138">
          <mxGeometry x="362.4" width="55.2" height="57.599999999999994" as="geometry" />
        </mxCell>
        <mxCell id="5WvWs1xMRRowV0mH6_QV-65" style="edgeStyle=orthogonalEdgeStyle;rounded=0;orthogonalLoop=1;jettySize=auto;html=1;entryX=0;entryY=0.5;entryDx=0;entryDy=0;" edge="1" parent="5WvWs1xMRRowV0mH6_QV-138" source="5WvWs1xMRRowV0mH6_QV-4" target="5WvWs1xMRRowV0mH6_QV-64">
          <mxGeometry relative="1" as="geometry" />
        </mxCell>
        <mxCell id="5WvWs1xMRRowV0mH6_QV-4" value="RTS Main Switch&amp;nbsp; &amp;nbsp; &amp;nbsp; &amp;nbsp; &amp;nbsp; &amp;nbsp; &amp;nbsp; &amp;nbsp; &amp;nbsp; &amp;nbsp; &amp;nbsp; &amp;nbsp; &amp;nbsp; &amp;nbsp; &amp;nbsp; &amp;nbsp; &amp;nbsp;" style="sketch=0;points=[[0.015,0.015,0],[0.985,0.015,0],[0.985,0.985,0],[0.015,0.985,0],[0.25,0,0],[0.5,0,0],[0.75,0,0],[1,0.25,0],[1,0.5,0],[1,0.75,0],[0.75,1,0],[0.5,1,0],[0.25,1,0],[0,0.75,0],[0,0.5,0],[0,0.25,0]];verticalLabelPosition=bottom;html=1;verticalAlign=top;aspect=fixed;align=center;pointerEvents=1;shape=mxgraph.cisco19.rect;prIcon=l3_switch;fillColor=#FAFAFA;strokeColor=#005073;" vertex="1" parent="5WvWs1xMRRowV0mH6_QV-138">
          <mxGeometry x="355" y="120" width="70" height="70" as="geometry" />
        </mxCell>
        <mxCell id="5WvWs1xMRRowV0mH6_QV-6" value="Openstack Switch&lt;div&gt;TP-Link TL-SG3428X&lt;/div&gt;" style="sketch=0;points=[[0.015,0.015,0],[0.985,0.015,0],[0.985,0.985,0],[0.015,0.985,0],[0.25,0,0],[0.5,0,0],[0.75,0,0],[1,0.25,0],[1,0.5,0],[1,0.75,0],[0.75,1,0],[0.5,1,0],[0.25,1,0],[0,0.75,0],[0,0.5,0],[0,0.25,0]];verticalLabelPosition=bottom;html=1;verticalAlign=top;aspect=fixed;align=center;pointerEvents=1;shape=mxgraph.cisco19.rect;prIcon=l3_switch;fillColor=#FAFAFA;strokeColor=#005073;" vertex="1" parent="5WvWs1xMRRowV0mH6_QV-138">
          <mxGeometry x="375" y="320" width="50" height="50" as="geometry" />
        </mxCell>
        <mxCell id="5WvWs1xMRRowV0mH6_QV-8" value="Ubuntu Node 5&lt;div&gt;Worker 2&lt;/div&gt;" style="sketch=0;outlineConnect=0;fontColor=#232F3E;gradientColor=none;fillColor=#232F3D;strokeColor=none;dashed=0;verticalLabelPosition=bottom;verticalAlign=top;align=center;html=1;fontSize=12;fontStyle=0;aspect=fixed;pointerEvents=1;shape=mxgraph.aws4.traditional_server;" vertex="1" parent="5WvWs1xMRRowV0mH6_QV-138">
          <mxGeometry x="150" y="859" width="45" height="78" as="geometry" />
        </mxCell>
        <mxCell id="5WvWs1xMRRowV0mH6_QV-9" value="Ubuntu Node 4&lt;div&gt;Worker 1&lt;/div&gt;" style="sketch=0;outlineConnect=0;fontColor=#232F3E;gradientColor=none;fillColor=#232F3D;strokeColor=none;dashed=0;verticalLabelPosition=bottom;verticalAlign=top;align=center;html=1;fontSize=12;fontStyle=0;aspect=fixed;pointerEvents=1;shape=mxgraph.aws4.traditional_server;" vertex="1" parent="5WvWs1xMRRowV0mH6_QV-138">
          <mxGeometry x="150" y="709" width="45" height="78" as="geometry" />
        </mxCell>
        <mxCell id="5WvWs1xMRRowV0mH6_QV-10" value="Proxmox Node 1" style="sketch=0;outlineConnect=0;fontColor=#232F3E;gradientColor=none;fillColor=#232F3D;strokeColor=none;dashed=0;verticalLabelPosition=bottom;verticalAlign=top;align=center;html=1;fontSize=12;fontStyle=0;aspect=fixed;pointerEvents=1;shape=mxgraph.aws4.traditional_server;" vertex="1" parent="5WvWs1xMRRowV0mH6_QV-138">
          <mxGeometry x="150" y="559" width="50" height="86.67" as="geometry" />
        </mxCell>
        <mxCell id="5WvWs1xMRRowV0mH6_QV-34" style="edgeStyle=orthogonalEdgeStyle;rounded=0;orthogonalLoop=1;jettySize=auto;html=1;strokeColor=light-dark(#000000,#CC0000);" edge="1" parent="5WvWs1xMRRowV0mH6_QV-138" source="5WvWs1xMRRowV0mH6_QV-22" target="5WvWs1xMRRowV0mH6_QV-8">
          <mxGeometry relative="1" as="geometry">
            <Array as="points">
              <mxPoint x="60" y="307" />
              <mxPoint x="60" y="890" />
            </Array>
          </mxGeometry>
        </mxCell>
        <mxCell id="5WvWs1xMRRowV0mH6_QV-35" style="edgeStyle=orthogonalEdgeStyle;rounded=0;orthogonalLoop=1;jettySize=auto;html=1;strokeColor=light-dark(#000000,#CC0000);" edge="1" parent="5WvWs1xMRRowV0mH6_QV-138" source="5WvWs1xMRRowV0mH6_QV-23" target="5WvWs1xMRRowV0mH6_QV-9">
          <mxGeometry relative="1" as="geometry">
            <Array as="points">
              <mxPoint x="70" y="350" />
              <mxPoint x="70" y="748" />
            </Array>
          </mxGeometry>
        </mxCell>
        <mxCell id="5WvWs1xMRRowV0mH6_QV-36" style="edgeStyle=orthogonalEdgeStyle;rounded=0;orthogonalLoop=1;jettySize=auto;html=1;strokeColor=light-dark(#000000,#CC0000);" edge="1" parent="5WvWs1xMRRowV0mH6_QV-138" source="5WvWs1xMRRowV0mH6_QV-24" target="5WvWs1xMRRowV0mH6_QV-10">
          <mxGeometry relative="1" as="geometry">
            <Array as="points">
              <mxPoint x="80" y="391" />
              <mxPoint x="80" y="598" />
            </Array>
          </mxGeometry>
        </mxCell>
        <mxCell id="5WvWs1xMRRowV0mH6_QV-37" value="SFP Port Connection&lt;div&gt;10 G for Ceph Cluster&lt;/div&gt;&lt;div&gt;Internal / Non Routed&amp;nbsp;&lt;/div&gt;" style="text;html=1;align=center;verticalAlign=middle;resizable=0;points=[];autosize=1;strokeColor=none;fillColor=none;rotation=-90;" vertex="1" parent="5WvWs1xMRRowV0mH6_QV-138">
          <mxGeometry x="-40" y="568" width="140" height="60" as="geometry" />
        </mxCell>
        <mxCell id="5WvWs1xMRRowV0mH6_QV-43" value="" style="group;rotation=90;" vertex="1" connectable="0" parent="5WvWs1xMRRowV0mH6_QV-138">
          <mxGeometry x="332" y="407" width="35" height="118" as="geometry" />
        </mxCell>
        <mxCell id="5WvWs1xMRRowV0mH6_QV-39" value="" style="whiteSpace=wrap;html=1;aspect=fixed;rotation=90;" vertex="1" parent="5WvWs1xMRRowV0mH6_QV-43">
          <mxGeometry x="42" y="42" width="35" height="35" as="geometry" />
        </mxCell>
        <mxCell id="5WvWs1xMRRowV0mH6_QV-40" value="" style="whiteSpace=wrap;html=1;aspect=fixed;rotation=90;" vertex="1" parent="5WvWs1xMRRowV0mH6_QV-43">
          <mxGeometry y="42" width="35" height="35" as="geometry" />
        </mxCell>
        <mxCell id="5WvWs1xMRRowV0mH6_QV-41" value="" style="whiteSpace=wrap;html=1;aspect=fixed;rotation=90;" vertex="1" parent="5WvWs1xMRRowV0mH6_QV-43">
          <mxGeometry x="-41" y="42" width="35" height="35" as="geometry" />
        </mxCell>
        <mxCell id="5WvWs1xMRRowV0mH6_QV-48" value="" style="endArrow=none;html=1;rounded=0;strokeColor=light-dark(#000000,#FF0000);" edge="1" parent="5WvWs1xMRRowV0mH6_QV-138">
          <mxGeometry width="50" height="50" relative="1" as="geometry">
            <mxPoint x="575" y="1025" as="sourcePoint" />
            <mxPoint x="645" y="1025" as="targetPoint" />
          </mxGeometry>
        </mxCell>
        <mxCell id="5WvWs1xMRRowV0mH6_QV-50" value="Storage Network Vlan 5" style="text;html=1;align=center;verticalAlign=middle;whiteSpace=wrap;rounded=0;" vertex="1" parent="5WvWs1xMRRowV0mH6_QV-138">
          <mxGeometry x="640" y="1010" width="150" height="30" as="geometry" />
        </mxCell>
        <mxCell id="5WvWs1xMRRowV0mH6_QV-51" value="" style="endArrow=none;html=1;rounded=0;strokeColor=light-dark(#000000, #ffff00);" edge="1" parent="5WvWs1xMRRowV0mH6_QV-138">
          <mxGeometry width="50" height="50" relative="1" as="geometry">
            <mxPoint x="48" y="1025" as="sourcePoint" />
            <mxPoint x="118" y="1025" as="targetPoint" />
          </mxGeometry>
        </mxCell>
        <mxCell id="5WvWs1xMRRowV0mH6_QV-52" value="Management Vlan 10" style="text;html=1;align=center;verticalAlign=middle;whiteSpace=wrap;rounded=0;" vertex="1" parent="5WvWs1xMRRowV0mH6_QV-138">
          <mxGeometry x="106" y="1010" width="150" height="30" as="geometry" />
        </mxCell>
        <mxCell id="5WvWs1xMRRowV0mH6_QV-53" value="" style="endArrow=none;html=1;rounded=0;strokeColor=light-dark(#000000, #34ff32);" edge="1" parent="5WvWs1xMRRowV0mH6_QV-138">
          <mxGeometry width="50" height="50" relative="1" as="geometry">
            <mxPoint x="301" y="1025" as="sourcePoint" />
            <mxPoint x="371" y="1025" as="targetPoint" />
          </mxGeometry>
        </mxCell>
        <mxCell id="5WvWs1xMRRowV0mH6_QV-54" value="Public Vlan Vlan 20" style="text;html=1;align=center;verticalAlign=middle;whiteSpace=wrap;rounded=0;" vertex="1" parent="5WvWs1xMRRowV0mH6_QV-138">
          <mxGeometry x="356" y="1010" width="150" height="30" as="geometry" />
        </mxCell>
        <mxCell id="5WvWs1xMRRowV0mH6_QV-58" style="edgeStyle=orthogonalEdgeStyle;rounded=0;orthogonalLoop=1;jettySize=auto;html=1;strokeColor=light-dark(#000000,#FFFF00);" edge="1" parent="5WvWs1xMRRowV0mH6_QV-138" source="5WvWs1xMRRowV0mH6_QV-41" target="5WvWs1xMRRowV0mH6_QV-10">
          <mxGeometry relative="1" as="geometry">
            <Array as="points">
              <mxPoint x="309" y="600" />
            </Array>
          </mxGeometry>
        </mxCell>
        <mxCell id="5WvWs1xMRRowV0mH6_QV-59" style="edgeStyle=orthogonalEdgeStyle;rounded=0;orthogonalLoop=1;jettySize=auto;html=1;strokeColor=light-dark(#000000,#33FF33);" edge="1" parent="5WvWs1xMRRowV0mH6_QV-138" source="5WvWs1xMRRowV0mH6_QV-40" target="5WvWs1xMRRowV0mH6_QV-10">
          <mxGeometry relative="1" as="geometry">
            <Array as="points">
              <mxPoint x="349" y="620" />
            </Array>
          </mxGeometry>
        </mxCell>
        <mxCell id="5WvWs1xMRRowV0mH6_QV-60" style="edgeStyle=orthogonalEdgeStyle;rounded=0;orthogonalLoop=1;jettySize=auto;html=1;strokeColor=light-dark(#000000,#FFFF00);" edge="1" parent="5WvWs1xMRRowV0mH6_QV-138" source="5WvWs1xMRRowV0mH6_QV-39" target="5WvWs1xMRRowV0mH6_QV-9">
          <mxGeometry relative="1" as="geometry">
            <Array as="points">
              <mxPoint x="392" y="740" />
            </Array>
          </mxGeometry>
        </mxCell>
        <mxCell id="5WvWs1xMRRowV0mH6_QV-61" style="edgeStyle=orthogonalEdgeStyle;rounded=0;orthogonalLoop=1;jettySize=auto;html=1;strokeColor=light-dark(#000000,#33FF33);" edge="1" parent="5WvWs1xMRRowV0mH6_QV-138" source="5WvWs1xMRRowV0mH6_QV-47" target="5WvWs1xMRRowV0mH6_QV-9">
          <mxGeometry relative="1" as="geometry">
            <Array as="points">
              <mxPoint x="435" y="760" />
            </Array>
          </mxGeometry>
        </mxCell>
        <mxCell id="5WvWs1xMRRowV0mH6_QV-62" style="edgeStyle=orthogonalEdgeStyle;rounded=0;orthogonalLoop=1;jettySize=auto;html=1;strokeColor=light-dark(#000000,#FFFF00);" edge="1" parent="5WvWs1xMRRowV0mH6_QV-138" source="5WvWs1xMRRowV0mH6_QV-46" target="5WvWs1xMRRowV0mH6_QV-8">
          <mxGeometry relative="1" as="geometry">
            <Array as="points">
              <mxPoint x="477" y="898" />
            </Array>
          </mxGeometry>
        </mxCell>
        <mxCell id="5WvWs1xMRRowV0mH6_QV-63" style="edgeStyle=orthogonalEdgeStyle;rounded=0;orthogonalLoop=1;jettySize=auto;html=1;strokeColor=light-dark(#000000,#33FF33);" edge="1" parent="5WvWs1xMRRowV0mH6_QV-138" source="5WvWs1xMRRowV0mH6_QV-45" target="5WvWs1xMRRowV0mH6_QV-8">
          <mxGeometry relative="1" as="geometry">
            <Array as="points">
              <mxPoint x="519" y="920" />
            </Array>
          </mxGeometry>
        </mxCell>
        <mxCell id="5WvWs1xMRRowV0mH6_QV-45" value="" style="whiteSpace=wrap;html=1;aspect=fixed;rotation=90;" vertex="1" parent="5WvWs1xMRRowV0mH6_QV-138">
          <mxGeometry x="501" y="450" width="35" height="35" as="geometry" />
        </mxCell>
        <mxCell id="5WvWs1xMRRowV0mH6_QV-46" value="" style="whiteSpace=wrap;html=1;aspect=fixed;rotation=90;" vertex="1" parent="5WvWs1xMRRowV0mH6_QV-138">
          <mxGeometry x="459" y="450" width="35" height="35" as="geometry" />
        </mxCell>
        <mxCell id="5WvWs1xMRRowV0mH6_QV-47" value="" style="whiteSpace=wrap;html=1;aspect=fixed;rotation=90;" vertex="1" parent="5WvWs1xMRRowV0mH6_QV-138">
          <mxGeometry x="418" y="449" width="35" height="35" as="geometry" />
        </mxCell>
        <mxCell id="5WvWs1xMRRowV0mH6_QV-64" value="" style="whiteSpace=wrap;html=1;aspect=fixed;rotation=90;" vertex="1" parent="5WvWs1xMRRowV0mH6_QV-138">
          <mxGeometry x="372.5" y="255" width="35" height="35" as="geometry" />
        </mxCell>
        <mxCell id="5WvWs1xMRRowV0mH6_QV-66" value="10 G SFP" style="text;html=1;align=center;verticalAlign=middle;whiteSpace=wrap;rounded=0;rotation=-90;" vertex="1" parent="5WvWs1xMRRowV0mH6_QV-138">
          <mxGeometry x="235" y="340" width="60" height="30" as="geometry" />
        </mxCell>
        <mxCell id="5WvWs1xMRRowV0mH6_QV-67" value="1 G&amp;nbsp;" style="text;html=1;align=center;verticalAlign=middle;whiteSpace=wrap;rounded=0;rotation=0;" vertex="1" parent="5WvWs1xMRRowV0mH6_QV-138">
          <mxGeometry x="370" y="419" width="60" height="30" as="geometry" />
        </mxCell>
        <mxCell id="5WvWs1xMRRowV0mH6_QV-74" value="10.10.5.0/24" style="text;html=1;align=center;verticalAlign=middle;whiteSpace=wrap;rounded=0;" vertex="1" parent="5WvWs1xMRRowV0mH6_QV-138">
          <mxGeometry x="655" y="1033" width="60" height="30" as="geometry" />
        </mxCell>
        <mxCell id="5WvWs1xMRRowV0mH6_QV-75" value="10.10.20.0/24" style="text;html=1;align=center;verticalAlign=middle;whiteSpace=wrap;rounded=0;" vertex="1" parent="5WvWs1xMRRowV0mH6_QV-138">
          <mxGeometry x="385" y="1033" width="60" height="30" as="geometry" />
        </mxCell>
        <mxCell id="5WvWs1xMRRowV0mH6_QV-77" value="10.10.1&lt;span style=&quot;background-color: transparent; color: light-dark(rgb(0, 0, 0), rgb(255, 255, 255));&quot;&gt;0.0/24&lt;/span&gt;" style="text;html=1;align=center;verticalAlign=middle;whiteSpace=wrap;rounded=0;" vertex="1" parent="5WvWs1xMRRowV0mH6_QV-138">
          <mxGeometry x="130" y="1033" width="60" height="30" as="geometry" />
        </mxCell>
        <mxCell id="5WvWs1xMRRowV0mH6_QV-88" style="edgeStyle=orthogonalEdgeStyle;rounded=0;orthogonalLoop=1;jettySize=auto;html=1;" edge="1" parent="5WvWs1xMRRowV0mH6_QV-138" source="5WvWs1xMRRowV0mH6_QV-87" target="5WvWs1xMRRowV0mH6_QV-10">
          <mxGeometry relative="1" as="geometry">
            <Array as="points">
              <mxPoint x="220" y="569" />
              <mxPoint x="220" y="569" />
            </Array>
          </mxGeometry>
        </mxCell>
        <mxCell id="5WvWs1xMRRowV0mH6_QV-87" value="" style="fillColor=#808080;aspect=fixed;sketch=0;pointerEvents=1;shadow=0;dashed=0;html=1;strokeColor=none;labelPosition=center;verticalLabelPosition=bottom;outlineConnect=0;verticalAlign=top;align=center;shape=mxgraph.openstack.neutron_port;" vertex="1" parent="5WvWs1xMRRowV0mH6_QV-138">
          <mxGeometry x="246" y="559" width="20" height="20" as="geometry" />
        </mxCell>
        <mxCell id="5WvWs1xMRRowV0mH6_QV-100" style="edgeStyle=orthogonalEdgeStyle;rounded=0;orthogonalLoop=1;jettySize=auto;html=1;" edge="1" parent="5WvWs1xMRRowV0mH6_QV-138" source="5WvWs1xMRRowV0mH6_QV-99" target="5WvWs1xMRRowV0mH6_QV-9">
          <mxGeometry relative="1" as="geometry">
            <Array as="points">
              <mxPoint x="210" y="720" />
              <mxPoint x="210" y="720" />
            </Array>
          </mxGeometry>
        </mxCell>
        <mxCell id="5WvWs1xMRRowV0mH6_QV-99" value="" style="fillColor=#808080;aspect=fixed;sketch=0;pointerEvents=1;shadow=0;dashed=0;html=1;strokeColor=none;labelPosition=center;verticalLabelPosition=bottom;outlineConnect=0;verticalAlign=top;align=center;shape=mxgraph.openstack.neutron_port;" vertex="1" parent="5WvWs1xMRRowV0mH6_QV-138">
          <mxGeometry x="246" y="709" width="20" height="20" as="geometry" />
        </mxCell>
        <mxCell id="5WvWs1xMRRowV0mH6_QV-102" style="edgeStyle=orthogonalEdgeStyle;rounded=0;orthogonalLoop=1;jettySize=auto;html=1;" edge="1" parent="5WvWs1xMRRowV0mH6_QV-138" source="5WvWs1xMRRowV0mH6_QV-101" target="5WvWs1xMRRowV0mH6_QV-8">
          <mxGeometry relative="1" as="geometry">
            <Array as="points">
              <mxPoint x="210" y="870" />
              <mxPoint x="210" y="870" />
            </Array>
          </mxGeometry>
        </mxCell>
        <mxCell id="5WvWs1xMRRowV0mH6_QV-101" value="" style="fillColor=#808080;aspect=fixed;sketch=0;pointerEvents=1;shadow=0;dashed=0;html=1;strokeColor=none;labelPosition=center;verticalLabelPosition=bottom;outlineConnect=0;verticalAlign=top;align=center;shape=mxgraph.openstack.neutron_port;" vertex="1" parent="5WvWs1xMRRowV0mH6_QV-138">
          <mxGeometry x="246" y="859" width="20" height="20" as="geometry" />
        </mxCell>
        <mxCell id="5WvWs1xMRRowV0mH6_QV-104" style="edgeStyle=orthogonalEdgeStyle;rounded=0;orthogonalLoop=1;jettySize=auto;html=1;entryX=0.5;entryY=1;entryDx=0;entryDy=0;entryPerimeter=0;" edge="1" parent="5WvWs1xMRRowV0mH6_QV-138" source="5WvWs1xMRRowV0mH6_QV-103" target="5WvWs1xMRRowV0mH6_QV-105">
          <mxGeometry relative="1" as="geometry">
            <mxPoint x="730" y="197.14285714285717" as="targetPoint" />
          </mxGeometry>
        </mxCell>
        <mxCell id="5WvWs1xMRRowV0mH6_QV-103" value="Out of Band Managenent&lt;div&gt;iLO&lt;/div&gt;" style="fillColor=#808080;aspect=fixed;sketch=0;pointerEvents=1;shadow=0;dashed=0;html=1;strokeColor=none;labelPosition=center;verticalLabelPosition=bottom;outlineConnect=0;verticalAlign=top;align=center;shape=mxgraph.openstack.neutron_port;" vertex="1" parent="5WvWs1xMRRowV0mH6_QV-138">
          <mxGeometry x="620" y="645.67" width="50" height="50" as="geometry" />
        </mxCell>
        <mxCell id="5WvWs1xMRRowV0mH6_QV-105" value="&lt;div style=&quot;text-align: left;&quot;&gt;&lt;span style=&quot;background-color: transparent; color: light-dark(rgb(0, 0, 0), rgb(255, 255, 255));&quot;&gt;Unmanaged Switch&lt;/span&gt;&lt;/div&gt;&lt;div style=&quot;text-align: left;&quot;&gt;Out of Band Switch&amp;nbsp; &amp;nbsp; &amp;nbsp; &amp;nbsp; &amp;nbsp; &amp;nbsp; &amp;nbsp; &amp;nbsp; &amp;nbsp; &amp;nbsp; &amp;nbsp; &amp;nbsp; &amp;nbsp; &amp;nbsp; &amp;nbsp; &amp;nbsp; &amp;nbsp; &amp;nbsp; &amp;nbsp;&lt;br&gt;&lt;/div&gt;" style="sketch=0;points=[[0.015,0.015,0],[0.985,0.015,0],[0.985,0.985,0],[0.015,0.985,0],[0.25,0,0],[0.5,0,0],[0.75,0,0],[1,0.25,0],[1,0.5,0],[1,0.75,0],[0.75,1,0],[0.5,1,0],[0.25,1,0],[0,0.75,0],[0,0.5,0],[0,0.25,0]];verticalLabelPosition=bottom;html=1;verticalAlign=top;aspect=fixed;align=center;pointerEvents=1;shape=mxgraph.cisco19.rect;prIcon=l3_switch;fillColor=#FAFAFA;strokeColor=#005073;" vertex="1" parent="5WvWs1xMRRowV0mH6_QV-138">
          <mxGeometry x="690" y="110" width="70" height="70" as="geometry" />
        </mxCell>
        <mxCell id="5WvWs1xMRRowV0mH6_QV-106" style="edgeStyle=orthogonalEdgeStyle;rounded=0;orthogonalLoop=1;jettySize=auto;html=1;entryX=0.997;entryY=0.471;entryDx=0;entryDy=0;entryPerimeter=0;" edge="1" parent="5WvWs1xMRRowV0mH6_QV-138" source="5WvWs1xMRRowV0mH6_QV-105" target="5WvWs1xMRRowV0mH6_QV-2">
          <mxGeometry relative="1" as="geometry">
            <Array as="points">
              <mxPoint x="725" y="27" />
            </Array>
          </mxGeometry>
        </mxCell>
        <mxCell id="5WvWs1xMRRowV0mH6_QV-108" value="" style="rounded=0;whiteSpace=wrap;html=1;dashed=1;fillColor=none;" vertex="1" parent="5WvWs1xMRRowV0mH6_QV-138">
          <mxGeometry x="30.000000000000004" y="1270" width="760" height="570" as="geometry" />
        </mxCell>
        <mxCell id="5WvWs1xMRRowV0mH6_QV-109" value="&lt;font style=&quot;font-size: 32px;&quot;&gt;&lt;b&gt;Inside Proxmox Node 1&lt;/b&gt;&lt;/font&gt;" style="text;html=1;align=left;verticalAlign=middle;whiteSpace=wrap;rounded=0;" vertex="1" parent="5WvWs1xMRRowV0mH6_QV-138">
          <mxGeometry x="30.000000000000004" y="1200" width="370" height="60" as="geometry" />
        </mxCell>
        <mxCell id="5WvWs1xMRRowV0mH6_QV-22" value="" style="whiteSpace=wrap;html=1;aspect=fixed;" vertex="1" parent="5WvWs1xMRRowV0mH6_QV-138">
          <mxGeometry x="210" y="290" width="35" height="35" as="geometry" />
        </mxCell>
        <mxCell id="5WvWs1xMRRowV0mH6_QV-23" value="" style="whiteSpace=wrap;html=1;aspect=fixed;" vertex="1" parent="5WvWs1xMRRowV0mH6_QV-138">
          <mxGeometry x="210" y="332" width="35" height="35" as="geometry" />
        </mxCell>
        <mxCell id="5WvWs1xMRRowV0mH6_QV-24" value="" style="whiteSpace=wrap;html=1;aspect=fixed;" vertex="1" parent="5WvWs1xMRRowV0mH6_QV-138">
          <mxGeometry x="210" y="373" width="35" height="35" as="geometry" />
        </mxCell>
        <mxCell id="5WvWs1xMRRowV0mH6_QV-116" style="edgeStyle=orthogonalEdgeStyle;rounded=0;orthogonalLoop=1;jettySize=auto;html=1;endArrow=diamond;endFill=1;strokeColor=light-dark(#000000,#C4C418);" edge="1" parent="5WvWs1xMRRowV0mH6_QV-138" source="5WvWs1xMRRowV0mH6_QV-110">
          <mxGeometry relative="1" as="geometry">
            <mxPoint x="715" y="1180" as="targetPoint" />
          </mxGeometry>
        </mxCell>
        <mxCell id="5WvWs1xMRRowV0mH6_QV-127" style="edgeStyle=orthogonalEdgeStyle;rounded=0;orthogonalLoop=1;jettySize=auto;html=1;" edge="1" parent="5WvWs1xMRRowV0mH6_QV-138" source="5WvWs1xMRRowV0mH6_QV-110" target="5WvWs1xMRRowV0mH6_QV-119">
          <mxGeometry relative="1" as="geometry" />
        </mxCell>
        <mxCell id="5WvWs1xMRRowV0mH6_QV-110" value="" style="whiteSpace=wrap;html=1;aspect=fixed;" vertex="1" parent="5WvWs1xMRRowV0mH6_QV-138">
          <mxGeometry x="697.5" y="1250" width="35" height="35" as="geometry" />
        </mxCell>
        <mxCell id="5WvWs1xMRRowV0mH6_QV-115" style="edgeStyle=orthogonalEdgeStyle;rounded=0;orthogonalLoop=1;jettySize=auto;html=1;endArrow=diamond;endFill=1;strokeColor=light-dark(#000000,#30C42E);" edge="1" parent="5WvWs1xMRRowV0mH6_QV-138" source="5WvWs1xMRRowV0mH6_QV-111">
          <mxGeometry relative="1" as="geometry">
            <mxPoint x="657.5" y="1180" as="targetPoint" />
          </mxGeometry>
        </mxCell>
        <mxCell id="5WvWs1xMRRowV0mH6_QV-126" style="edgeStyle=orthogonalEdgeStyle;rounded=0;orthogonalLoop=1;jettySize=auto;html=1;" edge="1" parent="5WvWs1xMRRowV0mH6_QV-138" source="5WvWs1xMRRowV0mH6_QV-111" target="5WvWs1xMRRowV0mH6_QV-118">
          <mxGeometry relative="1" as="geometry" />
        </mxCell>
        <mxCell id="5WvWs1xMRRowV0mH6_QV-111" value="" style="whiteSpace=wrap;html=1;aspect=fixed;" vertex="1" parent="5WvWs1xMRRowV0mH6_QV-138">
          <mxGeometry x="640" y="1250" width="35" height="35" as="geometry" />
        </mxCell>
        <mxCell id="5WvWs1xMRRowV0mH6_QV-114" style="edgeStyle=orthogonalEdgeStyle;rounded=0;orthogonalLoop=1;jettySize=auto;html=1;endArrow=diamond;endFill=1;strokeColor=light-dark(#000000,#C61511);" edge="1" parent="5WvWs1xMRRowV0mH6_QV-138" source="5WvWs1xMRRowV0mH6_QV-112">
          <mxGeometry relative="1" as="geometry">
            <mxPoint x="463" y="1180" as="targetPoint" />
          </mxGeometry>
        </mxCell>
        <mxCell id="5WvWs1xMRRowV0mH6_QV-125" style="edgeStyle=orthogonalEdgeStyle;rounded=0;orthogonalLoop=1;jettySize=auto;html=1;" edge="1" parent="5WvWs1xMRRowV0mH6_QV-138" source="5WvWs1xMRRowV0mH6_QV-112" target="5WvWs1xMRRowV0mH6_QV-117">
          <mxGeometry relative="1" as="geometry" />
        </mxCell>
        <mxCell id="5WvWs1xMRRowV0mH6_QV-112" value="" style="whiteSpace=wrap;html=1;aspect=fixed;" vertex="1" parent="5WvWs1xMRRowV0mH6_QV-138">
          <mxGeometry x="445" y="1250" width="35" height="35" as="geometry" />
        </mxCell>
        <mxCell id="5WvWs1xMRRowV0mH6_QV-117" value="cephbr" style="sketch=0;verticalLabelPosition=bottom;sketch=0;aspect=fixed;html=1;verticalAlign=top;strokeColor=none;fillColor=#000000;align=center;outlineConnect=0;pointerEvents=1;shape=mxgraph.citrix2.bridge;" vertex="1" parent="5WvWs1xMRRowV0mH6_QV-138">
          <mxGeometry x="437.5" y="1330" width="50" height="27.32" as="geometry" />
        </mxCell>
        <mxCell id="5WvWs1xMRRowV0mH6_QV-118" value="mgmtbr&amp;nbsp; &amp;nbsp; &amp;nbsp; &amp;nbsp; &amp;nbsp; &amp;nbsp; &amp;nbsp; &amp;nbsp;" style="sketch=0;verticalLabelPosition=bottom;sketch=0;aspect=fixed;html=1;verticalAlign=top;strokeColor=none;fillColor=#000000;align=center;outlineConnect=0;pointerEvents=1;shape=mxgraph.citrix2.bridge;" vertex="1" parent="5WvWs1xMRRowV0mH6_QV-138">
          <mxGeometry x="632.5" y="1330" width="50" height="27.32" as="geometry" />
        </mxCell>
        <mxCell id="5WvWs1xMRRowV0mH6_QV-119" value="&amp;nbsp; &amp;nbsp; &amp;nbsp; &amp;nbsp; &amp;nbsp; &amp;nbsp; &amp;nbsp; &amp;nbsp; pubbr" style="sketch=0;verticalLabelPosition=bottom;sketch=0;aspect=fixed;html=1;verticalAlign=top;strokeColor=none;fillColor=#000000;align=center;outlineConnect=0;pointerEvents=1;shape=mxgraph.citrix2.bridge;" vertex="1" parent="5WvWs1xMRRowV0mH6_QV-138">
          <mxGeometry x="690" y="1330" width="50" height="27.32" as="geometry" />
        </mxCell>
        <mxCell id="5WvWs1xMRRowV0mH6_QV-120" value="Ubuntu Node 1&lt;div&gt;Controller 1&lt;/div&gt;" style="verticalLabelPosition=bottom;html=1;verticalAlign=top;align=center;strokeColor=none;fillColor=#00BEF2;shape=mxgraph.azure.virtual_machine;" vertex="1" parent="5WvWs1xMRRowV0mH6_QV-138">
          <mxGeometry x="56" y="1650" width="214" height="140" as="geometry" />
        </mxCell>
        <mxCell id="5WvWs1xMRRowV0mH6_QV-123" value="Ubuntu Node 1&lt;div&gt;Controller 2&lt;/div&gt;" style="verticalLabelPosition=bottom;html=1;verticalAlign=top;align=center;strokeColor=none;fillColor=#00BEF2;shape=mxgraph.azure.virtual_machine;" vertex="1" parent="5WvWs1xMRRowV0mH6_QV-138">
          <mxGeometry x="303" y="1650" width="214" height="140" as="geometry" />
        </mxCell>
        <mxCell id="5WvWs1xMRRowV0mH6_QV-124" value="Ubuntu Node 3&lt;div&gt;Controller 3&lt;/div&gt;" style="verticalLabelPosition=bottom;html=1;verticalAlign=top;align=center;strokeColor=none;fillColor=#00BEF2;shape=mxgraph.azure.virtual_machine;" vertex="1" parent="5WvWs1xMRRowV0mH6_QV-138">
          <mxGeometry x="550.5" y="1650" width="214" height="140" as="geometry" />
        </mxCell>
        <mxCell id="5WvWs1xMRRowV0mH6_QV-128" style="edgeStyle=orthogonalEdgeStyle;rounded=0;orthogonalLoop=1;jettySize=auto;html=1;entryX=0.767;entryY=0.031;entryDx=0;entryDy=0;entryPerimeter=0;strokeColor=light-dark(#000000,#C4C418);" edge="1" parent="5WvWs1xMRRowV0mH6_QV-138" source="5WvWs1xMRRowV0mH6_QV-119" target="5WvWs1xMRRowV0mH6_QV-124">
          <mxGeometry relative="1" as="geometry" />
        </mxCell>
        <mxCell id="5WvWs1xMRRowV0mH6_QV-129" style="edgeStyle=orthogonalEdgeStyle;rounded=0;orthogonalLoop=1;jettySize=auto;html=1;entryX=0.848;entryY=0.01;entryDx=0;entryDy=0;entryPerimeter=0;strokeColor=light-dark(#000000,#C4C418);" edge="1" parent="5WvWs1xMRRowV0mH6_QV-138" source="5WvWs1xMRRowV0mH6_QV-119" target="5WvWs1xMRRowV0mH6_QV-123">
          <mxGeometry relative="1" as="geometry">
            <Array as="points">
              <mxPoint x="715" y="1560" />
              <mxPoint x="484" y="1560" />
            </Array>
          </mxGeometry>
        </mxCell>
        <mxCell id="5WvWs1xMRRowV0mH6_QV-130" style="edgeStyle=orthogonalEdgeStyle;rounded=0;orthogonalLoop=1;jettySize=auto;html=1;entryX=0.794;entryY=0.02;entryDx=0;entryDy=0;entryPerimeter=0;strokeColor=light-dark(#000000,#C4C418);" edge="1" parent="5WvWs1xMRRowV0mH6_QV-138" source="5WvWs1xMRRowV0mH6_QV-119" target="5WvWs1xMRRowV0mH6_QV-120">
          <mxGeometry relative="1" as="geometry">
            <Array as="points">
              <mxPoint x="715" y="1560" />
              <mxPoint x="226" y="1560" />
            </Array>
          </mxGeometry>
        </mxCell>
        <mxCell id="5WvWs1xMRRowV0mH6_QV-131" style="edgeStyle=orthogonalEdgeStyle;rounded=0;orthogonalLoop=1;jettySize=auto;html=1;entryX=0.5;entryY=0;entryDx=0;entryDy=0;entryPerimeter=0;strokeColor=light-dark(#000000,#30C42E);" edge="1" parent="5WvWs1xMRRowV0mH6_QV-138" source="5WvWs1xMRRowV0mH6_QV-118" target="5WvWs1xMRRowV0mH6_QV-124">
          <mxGeometry relative="1" as="geometry" />
        </mxCell>
        <mxCell id="5WvWs1xMRRowV0mH6_QV-132" style="edgeStyle=orthogonalEdgeStyle;rounded=0;orthogonalLoop=1;jettySize=auto;html=1;entryX=0.642;entryY=0;entryDx=0;entryDy=0;entryPerimeter=0;strokeColor=light-dark(#000000,#30C42E);" edge="1" parent="5WvWs1xMRRowV0mH6_QV-138" source="5WvWs1xMRRowV0mH6_QV-118" target="5WvWs1xMRRowV0mH6_QV-123">
          <mxGeometry relative="1" as="geometry">
            <Array as="points">
              <mxPoint x="658" y="1520" />
              <mxPoint x="440" y="1520" />
            </Array>
          </mxGeometry>
        </mxCell>
        <mxCell id="5WvWs1xMRRowV0mH6_QV-133" style="edgeStyle=orthogonalEdgeStyle;rounded=0;orthogonalLoop=1;jettySize=auto;html=1;entryX=0.594;entryY=0.02;entryDx=0;entryDy=0;entryPerimeter=0;strokeColor=light-dark(#000000,#30C42E);" edge="1" parent="5WvWs1xMRRowV0mH6_QV-138" source="5WvWs1xMRRowV0mH6_QV-118" target="5WvWs1xMRRowV0mH6_QV-120">
          <mxGeometry relative="1" as="geometry">
            <Array as="points">
              <mxPoint x="658" y="1520" />
              <mxPoint x="183" y="1520" />
            </Array>
          </mxGeometry>
        </mxCell>
        <mxCell id="5WvWs1xMRRowV0mH6_QV-135" style="edgeStyle=orthogonalEdgeStyle;rounded=0;orthogonalLoop=1;jettySize=auto;html=1;entryX=0.254;entryY=0;entryDx=0;entryDy=0;entryPerimeter=0;strokeColor=light-dark(#000000,#FF0000);" edge="1" parent="5WvWs1xMRRowV0mH6_QV-138" source="5WvWs1xMRRowV0mH6_QV-117" target="5WvWs1xMRRowV0mH6_QV-123">
          <mxGeometry relative="1" as="geometry">
            <Array as="points">
              <mxPoint x="80" y="1344" />
              <mxPoint x="80" y="1450" />
              <mxPoint x="357" y="1450" />
            </Array>
          </mxGeometry>
        </mxCell>
        <mxCell id="5WvWs1xMRRowV0mH6_QV-136" style="edgeStyle=orthogonalEdgeStyle;rounded=0;orthogonalLoop=1;jettySize=auto;html=1;entryX=0.12;entryY=0.031;entryDx=0;entryDy=0;entryPerimeter=0;strokeColor=light-dark(#000000,#FF0000);" edge="1" parent="5WvWs1xMRRowV0mH6_QV-138" source="5WvWs1xMRRowV0mH6_QV-117" target="5WvWs1xMRRowV0mH6_QV-120">
          <mxGeometry relative="1" as="geometry" />
        </mxCell>
        <mxCell id="5WvWs1xMRRowV0mH6_QV-137" style="edgeStyle=orthogonalEdgeStyle;rounded=0;orthogonalLoop=1;jettySize=auto;html=1;entryX=0.166;entryY=0;entryDx=0;entryDy=0;entryPerimeter=0;strokeColor=light-dark(#000000,#FF0000);" edge="1" parent="5WvWs1xMRRowV0mH6_QV-138" source="5WvWs1xMRRowV0mH6_QV-117" target="5WvWs1xMRRowV0mH6_QV-124">
          <mxGeometry relative="1" as="geometry">
            <Array as="points">
              <mxPoint x="80" y="1344" />
              <mxPoint x="80" y="1450" />
              <mxPoint x="586" y="1450" />
            </Array>
          </mxGeometry>
        </mxCell>
      </root>
    </mxGraphModel>
  </diagram>
</mxfile>
